<svg width="607" height="61" viewBox="0 0 607 61" fill="none" xmlns="http://www.w3.org/2000/svg">
<path d="M0 47.6902V0.366211H15.9928C19.706 0.366211 22.7412 1.03633 25.0985 2.37655C27.4713 3.70138 29.2277 5.49605 30.3678 7.76058C31.508 10.0251 32.0781 12.5515 32.0781 15.3398C32.0781 18.1281 31.508 20.6622 30.3678 22.9421C29.2431 25.2221 27.5021 27.0398 25.1448 28.3955C22.7874 29.7357 19.7676 30.4058 16.0853 30.4058H4.6222V25.3222H15.9004C18.4426 25.3222 20.484 24.8832 22.0248 24.0051C23.5655 23.127 24.6825 21.9408 25.3759 20.4465C26.0846 18.9369 26.439 17.2346 26.439 15.3398C26.439 13.445 26.0846 11.7505 25.3759 10.2562C24.6825 8.7619 23.5578 7.59112 22.0017 6.74385C20.4455 5.88118 18.3809 5.44984 15.8079 5.44984H5.73153V47.6902H0Z" fill="black"/>
<path d="M54.6113 48.4296C51.4066 48.4296 48.5947 47.6671 46.1758 46.142C43.7722 44.6169 41.8925 42.4833 40.5367 39.7412C39.1962 36.9991 38.526 33.7949 38.526 30.1285C38.526 26.4314 39.1962 23.204 40.5367 20.4465C41.8925 17.6891 43.7722 15.5478 46.1758 14.0227C48.5947 12.4976 51.4066 11.7351 54.6113 11.7351C57.816 11.7351 60.6201 12.4976 63.0237 14.0227C65.4426 15.5478 67.3223 17.6891 68.6628 20.4465C70.0186 23.204 70.6965 26.4314 70.6965 30.1285C70.6965 33.7949 70.0186 36.9991 68.6628 39.7412C67.3223 42.4833 65.4426 44.6169 63.0237 46.142C60.6201 47.6671 57.816 48.4296 54.6113 48.4296ZM54.6113 43.5308C57.0456 43.5308 59.0486 42.9069 60.6201 41.6591C62.1917 40.4113 63.3549 38.7707 64.1099 36.7373C64.8649 34.7038 65.2423 32.5009 65.2423 30.1285C65.2423 27.7562 64.8649 25.5456 64.1099 23.4967C63.3549 21.4479 62.1917 19.7918 60.6201 18.5286C59.0486 17.2654 57.0456 16.6338 54.6113 16.6338C52.1769 16.6338 50.174 17.2654 48.6024 18.5286C47.0309 19.7918 45.8676 21.4479 45.1127 23.4967C44.3577 25.5456 43.9802 27.7562 43.9802 30.1285C43.9802 32.5009 44.3577 34.7038 45.1127 36.7373C45.8676 38.7707 47.0309 40.4113 48.6024 41.6591C50.174 42.9069 52.1769 43.5308 54.6113 43.5308Z" fill="black"/>
<path d="M85.8573 47.6902L75.0414 12.1972H80.7729L88.4458 39.3715H88.8155L96.396 12.1972H102.22L109.708 39.2791H110.078L117.751 12.1972H123.482L112.666 47.6902H107.304L99.539 20.4234H98.9844L91.2191 47.6902H85.8573Z" fill="black"/>
<path d="M144.369 48.4296C140.948 48.4296 137.998 47.6748 135.517 46.1651C133.052 44.64 131.149 42.5141 129.809 39.7874C128.484 37.0454 127.821 33.8565 127.821 30.221C127.821 26.5854 128.484 23.3812 129.809 20.6083C131.149 17.82 133.013 15.6479 135.402 14.092C137.805 12.5207 140.609 11.7351 143.814 11.7351C145.663 11.7351 147.489 12.0431 149.291 12.6593C151.094 13.2755 152.735 14.2769 154.214 15.6633C155.693 17.0343 156.872 18.8521 157.75 21.1167C158.628 23.3812 159.067 26.1695 159.067 29.4815V31.7923H131.704V27.0784H153.521C153.521 25.0757 153.12 23.2887 152.319 21.7174C151.533 20.1461 150.408 18.906 148.945 17.9972C147.496 17.0883 145.786 16.6338 143.814 16.6338C141.641 16.6338 139.762 17.173 138.175 18.2513C136.603 19.3143 135.394 20.7007 134.546 22.4107C133.699 24.1206 133.275 25.9538 133.275 27.9102V31.0528C133.275 33.7333 133.738 36.0055 134.662 37.8695C135.602 39.7181 136.904 41.1277 138.568 42.0982C140.232 43.0533 142.165 43.5308 144.369 43.5308C145.801 43.5308 147.096 43.3306 148.251 42.93C149.422 42.5141 150.431 41.8979 151.279 41.0814C152.126 40.2496 152.781 39.2174 153.243 37.9851L158.513 39.4639C157.958 41.2509 157.026 42.8222 155.716 44.1778C154.406 45.5181 152.789 46.5656 150.863 47.3204C148.937 48.0599 146.772 48.4296 144.369 48.4296Z" fill="black"/>
<path d="M167.364 47.6902V12.1972H172.633V17.5581H173.003C173.65 15.802 174.821 14.377 176.516 13.2832C178.211 12.1895 180.121 11.6426 182.248 11.6426C182.648 11.6426 183.149 11.6503 183.75 11.6657C184.351 11.6811 184.805 11.7042 185.113 11.7351V17.2808C184.928 17.2346 184.505 17.1653 183.842 17.0729C183.195 16.965 182.509 16.9111 181.785 16.9111C180.06 16.9111 178.519 17.2731 177.163 17.9972C175.823 18.7058 174.76 19.6917 173.974 20.9549C173.203 22.2027 172.818 23.6277 172.818 25.2298V47.6902H167.364Z" fill="black"/>
<path d="M205.382 48.4296C201.961 48.4296 199.011 47.6748 196.53 46.1651C194.065 44.64 192.162 42.5141 190.822 39.7874C189.497 37.0454 188.834 33.8565 188.834 30.221C188.834 26.5854 189.497 23.3812 190.822 20.6083C192.162 17.82 194.026 15.6479 196.415 14.092C198.818 12.5207 201.622 11.7351 204.827 11.7351C206.676 11.7351 208.502 12.0431 210.304 12.6593C212.107 13.2755 213.748 14.2769 215.227 15.6633C216.706 17.0343 217.885 18.8521 218.763 21.1167C219.641 23.3812 220.08 26.1695 220.08 29.4815V31.7923H192.717V27.0784H214.534C214.534 25.0757 214.133 23.2887 213.332 21.7174C212.546 20.1461 211.421 18.906 209.958 17.9972C208.509 17.0883 206.799 16.6338 204.827 16.6338C202.655 16.6338 200.775 17.173 199.188 18.2513C197.616 19.3143 196.407 20.7007 195.559 22.4107C194.712 24.1206 194.288 25.9538 194.288 27.9102V31.0528C194.288 33.7333 194.751 36.0055 195.675 37.8695C196.615 39.7181 197.917 41.1277 199.581 42.0982C201.245 43.0533 203.178 43.5308 205.382 43.5308C206.814 43.5308 208.109 43.3306 209.264 42.93C210.435 42.5141 211.444 41.8979 212.292 41.0814C213.139 40.2496 213.794 39.2174 214.256 37.9851L219.526 39.4639C218.971 41.2509 218.039 42.8222 216.729 44.1778C215.419 45.5181 213.802 46.5656 211.876 47.3204C209.95 48.0599 207.785 48.4296 205.382 48.4296Z" fill="black"/>
<path d="M241.781 48.4296C238.823 48.4296 236.212 47.6825 233.947 46.1882C231.682 44.6785 229.91 42.5526 228.631 39.8105C227.352 37.0531 226.713 33.7949 226.713 30.0361C226.713 26.3081 227.352 23.0731 228.631 20.331C229.91 17.5889 231.69 15.4707 233.97 13.9765C236.25 12.4822 238.885 11.7351 241.874 11.7351C244.185 11.7351 246.011 12.1202 247.351 12.8904C248.707 13.6453 249.739 14.5079 250.448 15.4784C251.172 16.4336 251.735 17.2192 252.135 17.8354H252.597V0.366211H258.052V47.6902H252.782V42.2368H252.135C251.735 42.8838 251.164 43.7003 250.425 44.6862C249.685 45.6567 248.63 46.5271 247.259 47.2973C245.887 48.0522 244.062 48.4296 241.781 48.4296ZM242.521 43.5308C244.709 43.5308 246.558 42.9608 248.068 41.8209C249.578 40.6655 250.725 39.0711 251.511 37.0377C252.297 34.9888 252.69 32.6241 252.69 29.9437C252.69 27.294 252.305 24.9756 251.534 22.9883C250.764 20.9857 249.624 19.4298 248.114 18.3207C246.604 17.1961 244.74 16.6338 242.521 16.6338C240.21 16.6338 238.284 17.2269 236.743 18.4131C235.218 19.5839 234.07 21.1783 233.3 23.1963C232.545 25.199 232.167 27.4481 232.167 29.9437C232.167 32.4701 232.552 34.7654 233.323 36.8297C234.109 38.8785 235.264 40.5115 236.789 41.7285C238.33 42.93 240.241 43.5308 242.521 43.5308Z" fill="black"/>
<path d="M287.842 47.6902V0.366211H293.296V17.8354H293.758C294.159 17.2192 294.713 16.4336 295.422 15.4784C296.146 14.5079 297.178 13.6453 298.519 12.8904C299.875 12.1202 301.708 11.7351 304.019 11.7351C307.008 11.7351 309.643 12.4822 311.923 13.9765C314.204 15.4707 315.983 17.5889 317.262 20.331C318.541 23.0731 319.18 26.3081 319.18 30.0361C319.18 33.7949 318.541 37.0531 317.262 39.8105C315.983 42.5526 314.211 44.6785 311.946 46.1882C309.682 47.6825 307.07 48.4296 304.112 48.4296C301.832 48.4296 300.006 48.0522 298.634 47.2973C297.263 46.5271 296.208 45.6567 295.468 44.6862C294.729 43.7003 294.159 42.8838 293.758 42.2368H293.111V47.6902H287.842ZM293.203 29.9437C293.203 32.6241 293.596 34.9888 294.382 37.0377C295.168 39.0711 296.316 40.6655 297.826 41.8209C299.336 42.9608 301.184 43.5308 303.372 43.5308C305.652 43.5308 307.555 42.93 309.081 41.7285C310.621 40.5115 311.777 38.8785 312.547 36.8297C313.333 34.7654 313.726 32.4701 313.726 29.9437C313.726 27.4481 313.341 25.199 312.57 23.1963C311.815 21.1783 310.668 19.5839 309.127 18.4131C307.602 17.2269 305.683 16.6338 303.372 16.6338C301.154 16.6338 299.289 17.1961 297.779 18.3207C296.269 19.4298 295.129 20.9857 294.359 22.9883C293.589 24.9756 293.203 27.294 293.203 29.9437Z" fill="black"/>
<path d="M329.765 61C328.841 61 328.016 60.923 327.292 60.7689C326.568 60.6303 326.067 60.4917 325.79 60.353L327.177 55.5467C328.502 55.8856 329.673 56.0088 330.689 55.9164C331.706 55.824 332.608 55.3695 333.393 54.5531C334.195 53.752 334.926 52.4503 335.589 50.6479L336.606 47.875L323.479 12.1972H329.395L339.194 40.4807H339.564L349.363 12.1972H355.28L340.211 52.8662C339.533 54.6994 338.694 56.2168 337.692 57.4184C336.691 58.6354 335.527 59.5366 334.202 60.1219C332.893 60.7073 331.414 61 329.765 61Z" fill="black"/>
<path d="M472.612 18.4345C472.612 18.6176 472.854 18.6911 472.959 18.5417C474.147 16.8652 475.593 15.5336 477.298 14.5471C478.97 13.5421 480.808 12.9854 482.812 12.8768C483.217 12.8549 483.546 13.1868 483.546 13.5935V23.4499C483.546 23.8566 483.217 24.1863 482.811 24.1863H480.61C477.944 24.1863 475.944 24.7705 474.611 25.9389C473.278 27.0655 472.612 29.0685 472.612 31.9477V47.4227C472.612 47.8294 472.283 48.1591 471.877 48.1591H462.662C462.256 48.1591 461.927 47.8294 461.927 47.4227V13.9691C461.927 13.5624 462.256 13.2327 462.662 13.2327H471.877C472.283 13.2327 472.612 13.5624 472.612 13.9691V18.4345Z" fill="black"/>
<path d="M533.588 0C535.618 0 537.264 1.64844 537.264 3.68188V45.5817C537.264 45.9884 536.934 46.3181 536.528 46.3181H530.254C528.224 46.3181 526.579 44.6697 526.579 42.6362V0.736376C526.579 0.329686 526.908 0 527.314 0H533.588Z" fill="black"/>
<path d="M550.142 3.68189C552.171 3.68189 553.817 5.33032 553.817 7.36377V49.2636C553.817 49.6703 553.488 50 553.082 50H546.808C544.778 50 543.132 48.3516 543.132 46.3181V4.41826C543.132 4.01157 543.461 3.68189 543.867 3.68189H550.142Z" fill="black"/>
<path d="M592.553 30.1325C592.553 30.9316 592.513 31.7572 592.433 32.6094C592.399 32.9818 592.084 33.2621 591.71 33.2621H568.978C568.549 33.2621 568.209 33.6279 568.271 34.0524C568.53 35.8415 569.189 37.2472 570.246 38.2695C571.495 39.3962 573.016 39.9595 574.807 39.9595C577.302 39.9595 579.085 38.973 580.157 37C580.294 36.748 580.552 36.5795 580.838 36.5795H590.795C591.274 36.5795 591.626 37.0325 591.48 37.4901C590.864 39.4242 589.888 41.1862 588.554 42.7761C587.054 44.6122 585.159 46.0518 582.868 47.095C580.577 48.1382 578.015 48.6598 575.182 48.6598C571.766 48.6598 568.725 47.9296 566.059 46.4691C563.393 45.0086 561.31 42.9222 559.811 40.2099C558.311 37.4975 557.936 36.2666 557.561 32.5368C557.187 28.8071 558.29 23.8942 559.748 21.1819C561.248 18.4696 563.331 16.3832 565.997 14.9227C568.663 13.4622 571.725 12.732 575.182 12.732C578.556 12.732 581.555 13.4413 584.18 14.8601C586.804 16.2788 588.845 18.3026 590.303 20.9315C591.803 23.5604 592.553 26.6274 592.553 30.1325ZM580.883 27.3159C581.289 27.3159 581.623 26.9852 581.583 26.5805C581.434 25.0857 580.821 23.8703 579.743 22.9345C578.494 21.8495 576.932 21.3071 575.057 21.3071C573.266 21.3071 571.745 21.8287 570.496 22.8719C569.47 23.7573 568.775 24.9583 568.41 26.475C568.304 26.9132 568.652 27.3159 569.102 27.3159H580.883Z" fill="black"/>
<path d="M603.324 1.84094C605.354 1.84094 607 3.48938 607 5.52283V47.4227C607 47.8294 606.671 48.1591 606.265 48.1591H599.991C597.961 48.1591 596.315 46.5106 596.315 44.4772V2.57732C596.315 2.17063 596.644 1.84094 597.05 1.84094H603.324Z" fill="black"/>
<path d="M385.976 48.5049C385.479 48.625 385 48.2516 385 47.7443V17.5758C385 15.4096 386.493 13.5243 388.613 13.0118L394.418 11.6091C394.915 11.4891 395.393 11.8624 395.393 12.3697V24.0758C395.393 24.5081 395.747 24.8586 396.182 24.8586H400.517C402.084 24.8586 403.393 24.5649 404.443 23.9775C405.507 23.39 406.312 22.5691 406.858 21.5147C407.404 20.4453 407.676 19.2026 407.676 17.7867C407.676 16.3558 407.404 15.1206 406.858 14.0813C406.312 13.0269 405.507 12.2135 404.443 11.6412C403.379 11.0688 402.07 10.7826 400.517 10.7826H397.845C397.844 10.7826 397.843 10.7822 397.842 10.7816C397.841 10.7809 397.84 10.7806 397.839 10.7806H385.789C385.353 10.7806 385 10.43 385 9.99767V2.55048C385 2.1181 385.353 1.76759 385.789 1.76759H402.763C405.983 1.76759 408.761 2.44541 411.099 3.80105C413.451 5.14163 415.263 7.01692 416.537 9.42695C417.811 11.8219 418.448 14.6085 418.448 17.7867C418.448 20.98 417.797 23.7741 416.495 26.1691C415.207 28.549 413.367 30.3942 410.973 31.7046C408.579 33.0151 405.738 33.6703 402.448 33.6703H396.182C395.747 33.6703 395.393 34.0208 395.393 34.4532V42.5383C395.393 44.7044 393.901 46.5897 391.78 47.1022L385.976 48.5049Z" fill="black"/>
<path fill-rule="evenodd" clip-rule="evenodd" d="M437.745 48.1593C440.923 48.1593 443.903 47.3087 446.469 45.8223C446.593 45.7506 446.75 45.8392 446.75 45.9825V47.423C446.75 47.8297 447.079 48.1593 447.485 48.1593H455.571C455.977 48.1593 456.306 47.8297 456.306 47.423V13.9178C456.306 13.5111 455.977 13.1814 455.571 13.1814H447.485C447.079 13.1814 446.75 13.5111 446.75 13.9178V15.3582C446.75 15.5015 446.593 15.5902 446.469 15.5185C443.903 14.0321 440.923 13.1814 437.745 13.1814C428.102 13.1814 420.286 21.0115 420.286 30.6704C420.286 40.3293 428.102 48.1593 437.745 48.1593ZM438.663 39.3228C443.332 39.3228 447.117 35.5314 447.117 30.8545C447.117 26.1776 443.332 22.3861 438.663 22.3861C433.995 22.3861 430.21 26.1776 430.21 30.8545C430.21 35.5314 433.995 39.3228 438.663 39.3228Z" fill="black"/>
<path fill-rule="evenodd" clip-rule="evenodd" d="M502.802 48.1593C505.832 48.1593 508.681 47.3866 511.164 46.027C511.287 45.9593 511.44 46.0482 511.44 46.1894V47.423C511.44 47.8297 511.769 48.1593 512.175 48.1593H520.261C520.667 48.1593 520.996 47.8297 520.996 47.423V13.9178C520.996 13.5111 520.667 13.1814 520.261 13.1814H512.175C511.769 13.1814 511.44 13.5111 511.44 13.9178V15.1513C511.44 15.2926 511.287 15.3815 511.164 15.3138C508.681 13.9542 505.832 13.1814 502.802 13.1814C493.16 13.1814 485.343 21.0115 485.343 30.6704C485.343 40.3293 493.16 48.1593 502.802 48.1593ZM503.354 39.3228C508.023 39.3228 511.808 35.5314 511.808 30.8545C511.808 26.1776 508.023 22.3861 503.354 22.3861C498.685 22.3861 494.9 26.1776 494.9 30.8545C494.9 35.5314 498.685 39.3228 503.354 39.3228Z" fill="black"/>
</svg>
